<?xml version="1.0" encoding="UTF-8" standalone="no"?>
<svg width="15px" height="9px" viewBox="0 0 15 9" version="1.1" xmlns="http://www.w3.org/2000/svg" xmlns:xlink="http://www.w3.org/1999/xlink">
    <!-- Generator: Sketch 3.7.2 (28276) - http://www.bohemiancoding.com/sketch -->
    <title>list</title>
    <desc>Created with Sketch.</desc>
    <defs></defs>
    <g id="Page-1" stroke="none" stroke-width="1" fill="none" fill-rule="evenodd">
        <g id="list" fill="#000000">
            <polygon id="Line" points="4.5 2 14.5 2 15 2 15 1 14.5 1 4.5 1 4 1 4 2"></polygon>
            <polygon id="Line-Copy" points="4.5 5 14.5 5 15 5 15 4 14.5 4 4.5 4 4 4 4 5"></polygon>
            <polygon id="Line-Copy-2" points="4.5 8 14.5 8 15 8 15 7 14.5 7 4.5 7 4 7 4 8"></polygon>
            <path d="M1.5,2.5 C2.05228475,2.5 2.5,2.05228475 2.5,1.5 C2.5,0.94771525 2.05228475,0.5 1.5,0.5 C0.94771525,0.5 0.5,0.94771525 0.5,1.5 C0.5,2.05228475 0.94771525,2.5 1.5,2.5 L1.5,2.5 Z M1.5,1.5 C1.5,1.5 1.5,1.5 1.5,1.5 C1.5,1.5 1.5,1.5 1.5,1.5 C1.5,1.5 1.5,1.5 1.5,1.5 C1.5,1.5 1.5,1.5 1.5,1.5 L1.5,1.5 Z" id="Oval-1"></path>
            <path d="M1.5,5.5 C2.05228475,5.5 2.5,5.05228475 2.5,4.5 C2.5,3.94771525 2.05228475,3.5 1.5,3.5 C0.94771525,3.5 0.5,3.94771525 0.5,4.5 C0.5,5.05228475 0.94771525,5.5 1.5,5.5 L1.5,5.5 Z M1.5,4.5 C1.5,4.5 1.5,4.5 1.5,4.5 C1.5,4.5 1.5,4.5 1.5,4.5 C1.5,4.5 1.5,4.5 1.5,4.5 C1.5,4.5 1.5,4.5 1.5,4.5 L1.5,4.5 Z" id="Oval-1-Copy"></path>
            <path d="M1.5,8.5 C2.05228475,8.5 2.5,8.05228475 2.5,7.5 C2.5,6.94771525 2.05228475,6.5 1.5,6.5 C0.94771525,6.5 0.5,6.94771525 0.5,7.5 C0.5,8.05228475 0.94771525,8.5 1.5,8.5 L1.5,8.5 Z M1.5,7.5 C1.5,7.5 1.5,7.5 1.5,7.5 C1.5,7.5 1.5,7.5 1.5,7.5 C1.5,7.5 1.5,7.5 1.5,7.5 C1.5,7.5 1.5,7.5 1.5,7.5 L1.5,7.5 Z" id="Oval-1-Copy-2"></path>
        </g>
    </g>
</svg>