<?xml version="1.0" encoding="UTF-8" standalone="no"?>
<svg width="18px" height="17px" viewBox="0 0 18 17" version="1.1" xmlns="http://www.w3.org/2000/svg" xmlns:xlink="http://www.w3.org/1999/xlink">
    <!-- Generator: Sketch 3.7.2 (28276) - http://www.bohemiancoding.com/sketch -->
    <title>Shape</title>
    <desc>Created with Sketch.</desc>
    <defs></defs>
    <g id="Page-1" stroke="none" stroke-width="1" fill="none" fill-rule="evenodd">
        <path d="M14.5,17 C14.418,17 14.336,16.98 14.261,16.939 L9,14.07 L3.739,16.939 C3.571,17.031 3.366,17.018 3.21,16.907 C3.054,16.796 2.975,16.606 3.007,16.417 L3.965,10.671 L0.147,6.853 C0.015,6.721 -0.033,6.525 0.024,6.347 C0.081,6.169 0.233,6.037 0.418,6.006 L6.167,5.048 L8.553,0.276 C8.638,0.107 8.811,1.77635684e-15 9,1.77635684e-15 C9.189,1.77635684e-15 9.363,0.107 9.447,0.276 L11.833,5.048 L17.582,6.006 C17.767,6.037 17.919,6.168 17.976,6.347 C18.033,6.526 17.986,6.721 17.853,6.853 L14.035,10.671 L14.993,16.417 C15.024,16.606 14.945,16.796 14.79,16.907 C14.704,16.968 14.602,17 14.5,17 L14.5,17 Z" id="Shape" fill="#000000"></path>
    </g>
</svg>